<?xml version="1.0" encoding="iso-8859-1"?>
<!-- Generator: Adobe Illustrator 19.0.0, SVG Export Plug-In . SVG Version: 6.00 Build 0)  -->
<svg version="1.1" id="Layer_1" xmlns="http://www.w3.org/2000/svg" xmlns:xlink="http://www.w3.org/1999/xlink" x="0px" y="0px"
	 viewBox="0 0 512 512" style="enable-background:new 0 0 512 512;" xml:space="preserve">
<g>
	<g>
		<path d="M256,81.704c-96.108,0-174.298,78.19-174.298,174.298S159.892,430.3,256,430.3c96.109,0,174.298-78.19,174.298-174.298
			S352.109,81.704,256,81.704z M413.198,240.511c-0.175,4.065-3.527,7.32-7.634,7.32h-35.915v-19.237
			c-0.001-4.511-3.658-8.169-8.171-8.169H264.17v-16.34h23.474c4.513,0,8.17-3.658,8.17-8.17c0-4.219,3.431-7.652,7.651-7.652
			h10.548c4.513,0,8.17-3.658,8.17-8.17v-26.672h53.83C396.496,177.351,409.965,207.451,413.198,240.511z M256,98.045
			c7.263,0,14.409,0.504,21.415,1.458c-3.67,8.239-11.876,13.846-21.415,13.846c-9.538,0-17.744-5.607-21.414-13.846
			C241.591,98.549,248.738,98.045,256,98.045z M152.9,136.429v85.033h-51.043C109.388,187.831,127.669,158.213,152.9,136.429z
			 M100.327,282.8c2.258-1.803,5.049-2.805,8.004-2.805h55.116v23.472c0,9.677-5.396,24.719-11.546,32.188l-17.415,21.153
			C117.165,335.967,105.099,310.614,100.327,282.8z M256,413.961c-7.263-0.001-14.409-0.504-21.414-1.458
			c3.67-8.239,11.875-13.846,21.414-13.846c9.538,0,17.745,5.607,21.415,13.846C270.409,413.456,263.263,413.961,256,413.961z
			 M293.747,409.39c-5.306-15.923-20.22-27.073-37.748-27.073s-32.441,11.15-37.747,27.073
			c-27.801-6.843-52.726-21.064-72.578-40.462l18.842-22.885c8.563-10.4,15.272-29.102,15.272-42.576v-31.643
			c0-4.512-3.658-8.17-8.17-8.17H108.33c-3.473,0-6.846,0.605-10,1.751c-0.184-3.112-0.288-6.245-0.288-9.402
			c0-6.155,0.366-12.226,1.055-18.2H152.9v2.378c0,4.512,3.658,8.17,8.17,8.17s8.17-3.658,8.17-8.17V124.074
			c14.797-9.764,31.322-17.105,49.013-21.459c5.306,15.924,20.22,27.074,37.747,27.074s32.441-11.15,37.748-27.074
			c24.853,6.118,47.41,18.127,66.097,34.465h-61.654c-4.513,0-8.17,3.658-8.17,8.17s3.657,8.17,8.17,8.17h7.651v18.502h-2.378
			c-10.362,0-19.211,6.603-22.56,15.822H256c-4.512,0-8.17,3.658-8.17,8.17v24.511h-12.925c-4.512,0-8.17,3.658-8.17,8.17
			c0,4.512,3.658,8.17,8.17,8.17h86.76v16.34h-76.212c-16.137,0-29.266,13.128-29.266,29.266s13.129,29.266,29.266,29.266h2.378
			v28.747c0,16.137,13.129,29.266,29.266,29.266h36.917c4.513,0,8.17-3.658,8.17-8.17v-33.761c0-4.512-3.657-8.17-8.17-8.17
			s-8.17,3.658-8.17,8.17v25.591h-28.747c-7.128,0-12.925-5.799-12.925-12.925v-36.917c0-4.512-3.657-8.17-8.17-8.17h-10.548
			c-7.127,0-12.925-5.799-12.925-12.925s5.799-12.925,12.925-12.925h60.391v25.591c0,4.512,3.657,8.17,8.17,8.17
			s8.17-3.658,8.17-8.17v-25.591h7.651c4.513,0,8.17-3.658,8.17-8.17v-24.511h15.303v45.606c0,4.512,3.657,8.17,8.17,8.17
			s8.17-3.658,8.17-8.17v-18.2h35.915c2.894,0,5.671-0.516,8.242-1.46C410.817,333.834,360.584,392.938,293.747,409.39z"/>
	</g>
</g>
<g>
	<g>
		<path d="M345.657,319.549c-4.513,0-8.17,3.658-8.17,8.17v10.894c0,4.512,3.657,8.17,8.17,8.17c4.513,0,8.17-3.658,8.17-8.17
			v-10.894C353.827,323.207,350.169,319.549,345.657,319.549z"/>
	</g>
</g>
<g>
	<g>
		<path d="M234.905,147.456c-4.512,0-8.17,3.658-8.17,8.17v10.894c0,4.512,3.658,8.17,8.17,8.17c4.512,0,8.17-3.658,8.17-8.17
			v-10.894C243.075,151.114,239.417,147.456,234.905,147.456z"/>
	</g>
</g>
<g>
	<g>
		<path d="M73.532,81.7c-4.512,0-8.17,3.658-8.17,8.17v51.745h-16.34V89.87c0-4.512-3.658-8.17-8.17-8.17s-8.17,3.658-8.17,8.17
			v51.745H16.34V89.87c0-4.512-3.658-8.17-8.17-8.17S0,85.357,0,89.87v81.702c0,12.888,6.157,25.008,16.34,32.67v201.543
			c0,13.516,10.995,24.511,24.511,24.511s24.511-10.995,24.511-24.511V204.242c10.183-7.661,16.34-19.782,16.34-32.67V89.87
			C81.702,85.358,78.044,81.7,73.532,81.7z M65.362,171.572c0,8.715-4.698,16.848-12.263,21.226
			c-2.523,1.461-4.077,4.155-4.077,7.071v205.914c0,4.506-3.665,8.17-8.17,8.17s-8.17-3.665-8.17-8.17V199.87
			c0-2.916-1.555-5.61-4.077-7.071c-7.565-4.378-12.263-12.511-12.263-21.226v-13.617h49.021V171.572z"/>
	</g>
</g>
<g>
	<g>
		<path d="M479.319,81.7c-18.02,0-32.681,14.661-32.681,32.681v128c0,18.02,14.661,32.681,32.681,32.681h16.34v130.723
			c0,4.506-3.665,8.17-8.17,8.17c-4.506,0-8.17-3.665-8.17-8.171l-0.011-106.213c0-4.512-3.658-8.17-8.171-8.169
			c-4.512,0-8.169,3.658-8.169,8.171l0.011,106.212c0,13.516,10.996,24.511,24.511,24.511c13.515,0,24.511-10.995,24.511-24.511
			V114.381C512,96.361,497.339,81.7,479.319,81.7z M495.66,258.721h-16.34c-9.01,0-16.34-7.33-16.34-16.34v-128
			c0-9.01,7.33-16.34,16.34-16.34s16.34,7.33,16.34,16.34V258.721z"/>
	</g>
</g>
<g>
</g>
<g>
</g>
<g>
</g>
<g>
</g>
<g>
</g>
<g>
</g>
<g>
</g>
<g>
</g>
<g>
</g>
<g>
</g>
<g>
</g>
<g>
</g>
<g>
</g>
<g>
</g>
<g>
</g>
</svg>
